<?xml version="1.0" standalone="no"?>
<!DOCTYPE svg PUBLIC "-//W3C//DTD SVG 20010904//EN"
        "http://www.w3.org/TR/2001/REC-SVG-20010904/DTD/svg10.dtd">
<svg version="1.0" xmlns="http://www.w3.org/2000/svg"
     width="320pt" height="320pt" viewBox="0 0 320 320"
     preserveAspectRatio="xMidYMid meet">
    <metadata>
        Created by potrace 1.8, written by Peter Selinger 2001-2007
    </metadata>
    <g transform="translate(0,320) scale(0.080000,-0.080000)"
       fill="#000000" stroke="none">
        <path d="M2449 3522 c-1 -4 -1 -9 -1 -12 0 -3 -21 -5 -46 -5 -48 0 -62 -3
-215 -50 -131 -40 -233 -113 -346 -248 -37 -45 -73 -92 -80 -104 -16 -30 -4
-343 16 -438 8 -38 18 -88 22 -110 4 -23 10 -46 14 -52 4 -6 1 -14 -5 -16 -7
-3 -8 -6 -3 -6 7 -1 8 -56 3 -158 -3 -87 -6 -200 -7 -251 -1 -51 -5 -91 -10
-88 -4 3 -11 -36 -14 -87 -5 -89 -10 -116 -45 -257 -9 -36 -17 -67 -17 -70 -3
-17 -30 -80 -35 -80 -3 0 -6 -10 -7 -21 -1 -12 -10 -31 -20 -42 -12 -14 -13
-18 -3 -12 15 9 -15 -33 -35 -47 -5 -4 -6 -8 -1 -8 5 0 2 -8 -6 -17 -8 -10
-18 -26 -21 -36 -4 -9 -20 -20 -37 -23 -16 -4 -35 -13 -41 -20 -15 -18 -6 -97
21 -184 11 -36 20 -89 20 -119 0 -43 9 -72 43 -143 23 -48 50 -90 59 -93 10
-4 20 -21 24 -42 12 -66 -3 -264 -29 -383 -14 -63 -28 -157 -31 -207 l-4 -93
199 0 199 0 -31 29 c-26 25 -29 33 -20 50 9 17 8 24 -8 40 -13 13 -18 30 -16
48 2 15 4 32 4 36 1 4 10 3 22 -3 11 -7 18 -18 15 -25 -9 -25 12 -27 25 -3 7
13 19 28 28 35 9 6 14 13 11 15 -15 11 -86 41 -92 40 -11 -3 -10 26 1 32 4 3
26 -3 47 -13 44 -21 152 -51 180 -50 11 0 -6 8 -36 18 -94 31 -152 60 -147 74
2 6 10 36 18 65 8 35 17 51 26 48 7 -3 54 -32 105 -64 51 -32 112 -69 136 -82
53 -30 60 -66 11 -55 -22 5 -29 4 -25 -4 4 -6 12 -9 17 -6 5 4 9 1 9 -4 0 -6
7 -11 17 -11 14 0 13 -3 -4 -17 -50 -45 -62 -107 -27 -148 18 -22 25 -24 48
-15 32 12 35 3 4 -11 -21 -9 -21 -9 5 -4 15 3 27 1 27 -4 0 -5 116 -10 284
-11 l285 -1 7 36 c3 19 10 38 15 41 5 3 9 14 9 26 0 14 -5 18 -16 14 -8 -3
-12 -2 -9 4 3 6 13 10 21 10 8 0 14 4 14 8 0 5 32 40 71 78 101 99 165 234
110 234 -10 0 -21 7 -24 15 -5 11 -1 12 19 5 14 -6 27 -10 29 -10 1 0 6 30 10
68 l7 67 101 27 c56 15 114 29 129 32 16 4 60 37 100 76 39 39 75 70 80 70 4
0 8 5 8 10 0 6 -7 10 -15 10 -8 0 -15 7 -15 15 0 8 6 15 14 15 20 0 25 46 8
71 -14 20 -14 24 8 41 23 18 23 21 11 71 -8 29 -19 59 -26 67 -8 8 -16 26 -19
40 -16 80 -17 82 -32 76 -14 -5 -15 1 -9 43 5 38 3 49 -9 54 -11 4 -13 1 -9
-10 5 -11 0 -10 -15 5 -12 12 -22 26 -22 31 0 6 -10 27 -22 47 l-22 37 22 -5
c19 -5 22 -3 19 15 -2 12 -15 47 -29 77 -14 30 -28 68 -32 83 -4 15 -10 25
-15 22 -8 -4 -15 21 -24 90 -2 11 -15 45 -29 75 -50 106 -57 127 -45 139 7 7
6 16 -7 30 -10 11 -15 24 -12 30 4 6 -1 22 -10 36 -9 14 -19 42 -21 62 -2 21
-14 53 -25 72 -12 19 -16 31 -10 27 15 -9 16 6 1 21 -6 6 -12 19 -14 29 -1 11
-8 18 -14 17 -13 -3 -15 14 -2 19 5 2 1 34 -8 71 -9 38 -19 65 -23 62 -4 -4
-4 2 -1 13 2 11 -5 38 -16 60 -12 23 -21 53 -21 67 0 14 -9 35 -19 47 -11 11
-17 26 -14 34 3 8 0 14 -6 14 -6 0 -8 7 -5 15 4 8 2 15 -4 15 -12 0 -33 59
-39 104 -2 17 -7 32 -11 35 -9 6 -21 45 -28 86 -7 44 -86 259 -120 327 -43 88
-124 196 -175 238 -21 16 -60 38 -87 49 -51 20 -161 36 -163 23z m-466 -416
c24 -23 57 -109 72 -190 4 -20 13 -36 20 -36 15 0 29 -44 15 -48 -6 -2 -8 -7
-5 -12 3 -4 -10 -11 -28 -14 -19 -3 -42 -12 -52 -19 -15 -12 -16 -18 -6 -50 7
-21 18 -37 25 -37 7 0 22 -11 32 -25 10 -14 25 -25 32 -25 8 0 12 -6 8 -15 -8
-22 30 -38 78 -31 51 7 77 8 83 3 30 -30 78 -295 63 -347 -4 -14 -13 -44 -20
-67 -7 -24 -17 -43 -21 -43 -5 0 -16 -9 -26 -19 -29 -30 -109 -53 -160 -45
-52 8 -69 22 -83 72 -14 52 -13 53 18 36 29 -15 62 -19 62 -6 0 4 14 16 30 27
38 26 38 39 0 31 -19 -3 -29 -2 -25 4 8 14 -5 12 -34 -4 -30 -16 -69 -9 -76
15 -3 10 -14 21 -24 24 -25 8 -100 173 -113 249 -12 70 -6 108 14 88 16 -16
65 -15 74 0 4 6 2 14 -4 16 -18 6 -14 20 8 27 49 16 7 88 -81 140 -34 20 -34
21 -37 100 -4 91 8 140 40 177 47 53 82 60 121 24z m-108 -360 c33 -27 28 -39
-17 -50 -27 -6 -28 -5 -28 34 0 22 3 40 8 40 4 0 21 -11 37 -24z m272 -6 c14
0 22 -20 15 -37 -10 -28 -112 -3 -112 27 0 5 12 16 28 24 23 12 29 12 43 0 8
-8 20 -14 26 -14z m287 -775 c-3 -7 2 -18 11 -25 10 -8 15 -9 15 -1 0 6 -5 11
-12 11 -6 0 -8 3 -5 6 4 4 14 1 22 -6 21 -17 62 -76 47 -66 -7 4 -11 -1 -10
-16 2 -39 -2 -48 -17 -48 -18 0 -18 -1 -5 -36 13 -32 1 -50 -40 -59 -34 -7
-83 -53 -76 -71 3 -7 -21 -28 -55 -49 -46 -28 -59 -42 -59 -61 0 -16 -6 -24
-18 -24 -10 0 -57 -20 -105 -44 -48 -24 -87 -40 -87 -36 0 9 24 37 131 151 50
53 99 109 110 125 10 16 30 38 45 50 22 18 23 22 9 27 -9 4 -14 3 -10 -3 3 -6
0 -10 -7 -10 -7 0 -24 -12 -37 -25 -13 -14 -28 -25 -33 -25 -10 0 -9 12 13
108 l12 53 23 -22 c13 -13 24 -28 24 -35 0 -6 7 -17 15 -24 12 -10 15 -10 15
3 0 44 23 117 36 117 9 0 12 4 9 10 -7 12 14 37 31 37 7 0 10 -6 8 -12z m192
-268 c4 -23 10 -78 14 -122 l7 -80 2 71 c0 39 -4 95 -9 124 -6 29 -9 55 -7 57
2 2 18 -2 35 -8 35 -12 88 -72 115 -132 22 -50 18 -144 -8 -163 -8 -6 -15 -19
-15 -29 0 -12 -5 -15 -17 -11 -16 5 -16 4 1 -8 20 -16 14 -38 -9 -29 -19 7
-19 -7 -1 -43 17 -32 13 -44 -14 -44 -29 0 -32 -15 -9 -44 11 -14 17 -30 14
-36 -3 -5 -2 -10 3 -10 6 0 13 -16 16 -35 3 -19 9 -51 12 -70 4 -24 2 -35 -5
-35 -7 0 -9 -4 -6 -10 3 -5 2 -10 -3 -10 -6 0 -8 -8 -5 -18 2 -10 -6 -40 -18
-67 -13 -28 -23 -54 -23 -60 -1 -14 -27 -40 -54 -54 -30 -16 -128 2 -199 35
-64 31 -143 105 -174 164 -23 42 -24 54 -22 198 2 115 7 161 19 190 9 20 18
44 19 52 1 8 6 24 10 34 7 16 5 18 -8 13 -32 -12 -17 3 16 17 22 9 48 34 73
72 21 32 51 66 65 76 32 24 150 67 166 61 6 -2 15 -23 19 -46z m785 -124 c1
-22 5 -41 14 -68 7 -20 7 -20 -6 0 -7 11 -19 27 -27 35 -10 9 -11 15 -3 18 6
2 11 8 11 13 0 6 -4 7 -10 4 -5 -3 -10 -1 -10 4 0 19 30 12 31 -6z"/>
        <path d="M2080 2455 c-9 -23 -15 -25 -72 -26 -35 -1 -70 0 -77 1 -13 1 -13 -1
-2 -14 8 -9 18 -16 24 -16 5 0 16 -8 23 -17 12 -17 14 -17 42 0 17 9 39 17 49
17 27 0 43 19 43 52 0 35 -17 36 -30 3z"/>
        <path d="M1940 2339 c0 -42 71 -74 144 -65 16 2 42 0 58 -5 16 -4 26 -4 23 1
-3 5 4 11 15 15 16 5 18 10 10 25 -9 16 -14 18 -34 9 -32 -15 -195 3 -207 22
-7 11 -9 11 -9 -2z"/>
        <path d="M2035 152 c-36 -76 -42 -110 -20 -118 9 -4 20 -1 25 5 5 9 11 8 24
-4 9 -9 16 -21 16 -26 0 -5 25 -9 55 -9 l55 0 0 35 c0 24 -4 33 -13 29 -7 -2
-21 4 -31 15 -36 40 2 100 46 72 19 -12 23 -11 35 5 13 17 12 19 -14 22 -15 2
-56 9 -90 16 l-62 13 -26 -55z"/>
        <path d="M2232 18 c3 -7 20 -14 39 -15 19 -1 25 1 14 4 -11 3 -24 9 -29 14
-14 13 -28 11 -24 -3z"/>
    </g>
</svg>
