<?xml version="1.0" standalone="no"?>
<!DOCTYPE svg PUBLIC "-//W3C//DTD SVG 20010904//EN"
        "http://www.w3.org/TR/2001/REC-SVG-20010904/DTD/svg10.dtd">
<svg version="1.0" xmlns="http://www.w3.org/2000/svg"
     width="640pt" height="640pt" viewBox="0 0 640 640"
     preserveAspectRatio="xMidYMid meet">
    <metadata>
        Created by potrace 1.8, written by Peter Selinger 2001-2007
    </metadata>
    <g transform="translate(0,640) scale(0.080000,-0.080000)"
       fill="#000000" stroke="none">
        <path d="M4889 7039 c-12 -9 -12 -10 1 -8 27 3 40 -1 40 -12 0 -5 -4 -8 -9 -4
-5 3 -12 1 -16 -5 -7 -12 -45 -14 -45 -2 0 4 -9 8 -20 8 -22 0 -27 -12 -7 -19
6 -3 -1 -6 -17 -6 -25 -1 -27 1 -16 14 12 14 10 15 -11 11 -13 -3 -51 -10 -84
-16 -33 -6 -69 -17 -80 -24 -11 -7 -45 -15 -76 -19 -30 -3 -75 -14 -100 -25
-24 -12 -64 -26 -89 -33 -25 -7 -49 -16 -54 -21 -6 -4 -19 -8 -30 -8 -30 0
-145 -53 -146 -67 0 -6 -5 -15 -12 -19 -7 -4 -8 -3 -4 4 12 20 -4 13 -32 -13
-15 -14 -43 -35 -62 -47 -75 -45 -254 -212 -301 -280 -22 -32 -100 -125 -152
-180 -14 -16 -24 -28 -22 -28 3 0 -4 -17 -15 -37 -20 -37 -21 -49 -15 -338 7
-333 22 -488 59 -615 30 -104 48 -186 48 -222 1 -16 4 -28 8 -28 4 0 7 -13 8
-30 0 -16 -4 -30 -9 -30 -12 0 -10 -518 2 -526 11 -7 10 -140 -2 -174 -5 -16
-6 10 -3 66 4 58 2 94 -4 98 -13 8 -26 -29 -17 -44 10 -16 12 -160 3 -160 -5
0 -8 -14 -8 -31 0 -16 4 -28 8 -25 10 6 7 -56 -9 -164 -13 -86 -31 -132 -23
-57 4 34 2 47 -6 42 -6 -4 -10 -45 -8 -113 2 -130 -28 -352 -49 -352 -7 0 -13
-7 -13 -16 0 -8 5 -12 10 -9 6 3 10 4 10 2 0 -15 -42 -201 -50 -223 -6 -15 -8
-34 -6 -41 3 -8 2 -12 -3 -9 -9 6 -21 -16 -21 -37 0 -7 4 -6 10 3 9 13 10 13
10 0 0 -9 -6 -24 -14 -35 -7 -11 -26 -49 -41 -85 -15 -35 -34 -70 -44 -78 -9
-7 -10 -11 -3 -7 16 8 15 -4 -3 -35 -18 -31 -19 -43 -2 -34 6 3 -6 -11 -29
-32 -22 -22 -30 -30 -17 -20 30 25 29 15 -3 -40 -14 -24 -31 -41 -36 -37 -6 3
-8 2 -5 -4 7 -12 -50 -103 -64 -103 -5 0 -9 -14 -9 -31 0 -21 4 -29 13 -26 6
3 21 8 32 12 18 7 18 6 -2 -9 -12 -9 -34 -18 -50 -20 -15 -1 -44 -11 -63 -21
-19 -11 -44 -18 -56 -16 -26 3 -54 -28 -58 -66 -6 -46 20 -182 62 -317 32
-105 37 -135 38 -226 1 -108 10 -152 49 -230 12 -25 27 -56 34 -70 6 -14 22
-43 36 -65 13 -22 24 -48 25 -57 0 -10 5 -18 10 -18 6 0 10 -7 10 -16 0 -8 15
-21 33 -29 55 -23 67 -76 67 -287 0 -98 -5 -210 -11 -250 -22 -147 -61 -339
-93 -463 -10 -36 -16 -101 -16 -165 0 -59 -3 -110 -7 -114 -4 -4 -8 -45 -8
-91 l-2 -85 389 0 c252 0 388 4 388 10 0 6 -6 10 -14 10 -14 0 -106 95 -106
110 0 6 6 10 13 10 8 0 14 6 15 13 0 6 3 21 7 32 4 15 -2 24 -24 37 -31 17
-50 70 -37 103 7 20 -4 19 -20 -2 -9 -13 -13 -14 -14 -5 0 8 8 24 18 37 24 30
77 163 69 172 -11 10 -18 -2 -24 -39 -5 -34 -31 -83 -40 -75 -2 3 3 19 12 37
9 17 14 38 11 46 -3 8 -2 14 3 14 4 0 6 13 3 30 -3 19 3 38 16 54 19 25 20 25
37 6 29 -32 315 -132 315 -110 0 12 -90 41 -103 33 -5 -3 -7 -1 -4 4 4 6 -26
24 -71 43 -42 18 -86 41 -97 52 -17 16 -18 19 -3 30 8 7 18 28 22 46 3 18 17
71 32 118 l25 84 27 -19 c15 -10 68 -42 117 -72 50 -29 111 -67 137 -85 25
-18 90 -58 145 -89 54 -31 105 -65 115 -76 9 -10 23 -19 32 -19 10 0 16 -9 16
-22 0 -13 4 -29 9 -37 14 -22 -9 -41 -36 -28 -26 12 -36 6 -28 -15 4 -11 16
-14 41 -11 36 4 47 -13 17 -24 -48 -18 -155 -169 -132 -184 18 -11 22 -51 7
-61 -10 -6 -8 -8 4 -8 12 0 15 -5 11 -17 -4 -11 -3 -14 6 -9 8 6 11 2 9 -10
-2 -13 4 -20 20 -22 18 -3 21 -8 16 -24 -6 -19 -3 -20 29 -14 73 14 140 67
121 97 -4 8 -3 9 4 5 7 -4 12 -1 12 7 0 8 7 17 15 21 8 3 15 12 15 20 0 7 7
16 15 20 17 6 18 2 6 -22 -5 -9 -17 -36 -26 -59 -10 -23 -21 -40 -25 -38 -5 3
-20 -9 -34 -25 -14 -17 -40 -37 -58 -45 -28 -12 -29 -14 -10 -15 13 0 38 16
62 40 22 22 40 36 40 31 0 -6 8 -8 18 -6 14 2 18 -4 19 -30 1 -19 4 -38 7 -44
4 -7 138 -10 386 -11 352 0 380 1 390 17 11 17 11 17 6 0 -5 -15 3 -17 80 -17
54 0 83 4 79 10 -3 6 -1 10 4 10 6 0 11 -4 11 -10 0 -5 25 -10 56 -10 54 0 56
1 50 24 -7 28 2 58 15 50 5 -3 9 11 9 30 0 23 7 43 20 56 11 11 20 31 20 45 0
22 -4 25 -25 21 -13 -3 -29 -7 -34 -11 -11 -6 -36 33 -26 43 3 3 8 -4 12 -16
5 -22 6 -22 22 -3 9 10 25 20 36 22 11 2 25 15 32 29 7 13 34 47 62 75 27 27
58 59 69 70 10 11 52 52 92 90 60 58 81 87 123 173 32 66 52 120 55 152 l5 50
-48 0 c-33 0 -52 -5 -62 -17 -14 -17 -14 -17 -7 2 4 11 9 32 12 47 4 27 17 37
24 19 6 -15 86 -20 92 -6 2 7 8 67 12 132 l7 120 61 12 c33 7 86 21 116 31
108 35 196 59 243 64 50 6 157 51 157 67 0 10 26 43 55 70 11 10 44 41 74 69
29 27 57 50 62 50 5 0 9 3 9 8 0 4 13 16 30 27 42 28 43 41 5 39 -29 -2 -32 1
-33 28 0 22 5 32 19 35 12 4 19 14 19 30 0 13 -4 21 -10 18 -18 -11 -31 5 -20
26 6 11 15 17 21 14 5 -4 7 -10 5 -14 -3 -4 1 -8 9 -8 18 0 18 -1 4 34 -16 41
-22 103 -10 103 6 0 8 7 5 15 -4 8 -1 15 5 15 6 0 8 8 4 18 -6 15 -5 15 10 3
14 -11 17 -11 17 0 0 12 2 12 9 0 7 -11 10 -9 16 8 9 30 -3 78 -23 86 -14 5
-14 7 -2 15 13 8 13 10 -1 10 -9 0 -21 12 -28 27 -10 24 -10 26 2 11 8 -10 18
-18 22 -18 4 0 3 6 -3 13 -6 7 -9 22 -6 33 4 15 -5 31 -28 55 -19 19 -35 44
-36 54 -11 115 -33 195 -52 195 -11 0 -7 -34 5 -42 7 -5 7 -8 0 -8 -19 0 -45
40 -45 70 0 16 -4 31 -9 34 -5 4 -7 -13 -5 -36 2 -24 1 -36 -2 -28 -3 8 -8 22
-12 30 -12 30 -9 90 4 101 14 12 18 1 15 -41 0 -8 6 -2 13 14 16 35 10 69 -15
84 -18 11 -18 11 -7 -8 10 -16 10 -22 -4 -36 -15 -15 -16 -14 -23 16 -4 17 -9
29 -13 26 -3 -3 -14 1 -24 11 -16 15 -27 5 -11 -11 11 -11 14 -48 3 -41 -5 3
-10 14 -10 24 0 9 -5 22 -12 29 -9 9 -9 12 1 12 13 0 6 40 -9 50 -4 3 -10 14
-13 25 -3 12 -5 4 -6 -18 -1 -43 -21 -42 -21 1 0 15 -5 34 -11 42 -8 12 -10 9
-6 -13 2 -15 0 -30 -4 -33 -5 -3 -9 2 -9 10 0 9 -4 16 -10 16 -6 0 -8 -16 -5
-37 3 -27 2 -33 -5 -22 -5 9 -8 51 -6 93 2 41 -1 73 -5 70 -5 -3 -9 -15 -9
-27 l0 -21 -16 22 c-13 19 -13 26 -3 38 10 13 10 17 0 23 -7 5 -11 17 -8 27 3
15 7 12 17 -13 6 -18 16 -31 20 -28 5 3 18 -9 30 -25 12 -17 25 -29 28 -26 3
3 -2 14 -11 24 -24 26 -22 46 2 33 16 -9 20 -6 26 22 l8 32 4 -30 c7 -51 22
-52 20 -2 -1 26 -5 47 -9 47 -3 0 -11 12 -16 28 -7 17 -11 21 -11 9 -1 -14 -5
-16 -20 -8 -14 8 -18 20 -16 51 2 39 -13 101 -28 116 -4 4 -7 18 -7 31 0 30
-18 65 -29 58 -16 -9 -32 24 -38 79 -3 31 -9 56 -12 56 -10 0 -28 51 -34 93
-6 35 -4 37 11 25 16 -12 16 -11 1 7 -48 61 -173 366 -163 398 6 20 7 20 20 2
8 -10 14 -15 14 -9 0 5 -11 21 -24 35 -13 14 -29 35 -35 47 -10 19 -9 22 9 22
22 0 27 15 8 26 -7 5 -8 3 -3 -6 5 -9 4 -11 -3 -6 -7 4 -12 13 -12 20 0 7 -11
30 -25 50 -14 21 -23 42 -20 47 4 5 2 9 -4 9 -7 0 -7 8 -1 26 7 18 7 30 0 39
-5 6 -7 14 -4 18 10 9 -7 48 -17 41 -6 -3 -10 0 -8 7 3 27 -1 40 -11 34 -5 -3
-11 -1 -11 4 -1 6 -3 16 -4 21 -1 6 -3 16 -4 23 -1 8 -4 8 -12 -3 -9 -13 -10
-13 -6 2 5 16 -12 103 -28 142 -6 14 -5 17 3 12 7 -4 12 -3 12 3 0 5 -4 12 -9
15 -14 9 -22 -23 -11 -44 12 -23 13 -33 1 -26 -5 4 -11 0 -14 -6 -2 -7 -5 3
-5 23 0 20 -9 55 -21 79 -11 24 -23 59 -26 79 -4 30 -4 32 4 14 6 -13 16 -23
22 -23 8 0 8 -4 -1 -15 -6 -8 -8 -20 -4 -26 5 -9 10 -7 15 7 6 16 8 16 8 2 1
-9 5 -19 10 -22 10 -7 9 2 -7 59 -7 25 -20 44 -34 50 -14 6 -23 19 -23 32 0
11 -3 25 -7 29 -13 12 -9 21 12 27 21 5 26 32 10 57 -7 11 -9 6 -6 -17 2 -24
-1 -33 -11 -33 -10 0 -13 10 -10 40 2 21 1 43 -4 47 -13 14 -28 83 -18 83 5 0
9 -5 9 -12 0 -6 3 -9 6 -6 8 8 -15 50 -24 44 -4 -2 -8 3 -9 12 -1 9 -8 35 -17
57 -8 22 -16 63 -17 90 -1 28 -3 42 -6 33 -2 -10 -9 -18 -15 -18 -7 0 -6 -5 1
-14 8 -10 9 -16 1 -21 -10 -6 -11 -5 -15 31 -1 12 -5 26 -9 32 -3 6 -2 13 4
17 5 3 10 14 9 23 0 15 -1 15 -8 -1 -5 -15 -10 -11 -23 20 -35 81 -126 361
-120 368 4 3 1 9 -6 13 -10 7 -45 115 -66 206 -7 27 -6 28 11 15 12 -9 9 -2
-7 21 -31 42 -50 84 -50 110 0 23 -79 263 -110 335 -114 261 -229 444 -370
584 -87 87 -108 102 -184 135 -46 20 -111 43 -143 51 -73 18 -214 27 -234 14z
m-957 -788 c20 -26 24 -20 7 10 -9 19 -9 19 10 10 11 -6 23 -21 26 -32 4 -12
22 -47 40 -78 18 -31 35 -68 39 -83 3 -16 11 -28 16 -28 6 0 10 -5 10 -11 0
-5 -5 -7 -11 -3 -8 4 -8 1 -1 -12 5 -11 15 -44 21 -74 34 -151 45 -190 53
-190 6 0 7 7 4 16 -17 44 -18 64 -3 64 8 0 18 -7 21 -16 3 -9 2 -12 -5 -8 -7
4 -7 0 -1 -12 12 -23 37 -86 37 -96 0 -3 4 -10 9 -15 5 -5 7 1 3 14 -3 13 -1
26 4 29 5 3 9 -1 9 -9 0 -8 2 -30 5 -48 4 -25 3 -29 -3 -14 -9 19 -9 19 -16
-3 -7 -20 -10 -21 -23 -10 -14 11 -15 10 -9 -10 6 -19 4 -22 -18 -22 -14 0
-26 -5 -26 -11 0 -5 -4 -8 -10 -4 -5 3 -17 2 -27 -3 -22 -12 -62 -28 -85 -36
-13 -4 -17 -14 -14 -38 2 -18 4 -43 5 -55 0 -13 7 -23 15 -23 8 0 16 -10 18
-22 2 -14 9 -22 19 -20 8 1 28 -14 44 -33 16 -21 34 -34 42 -31 8 3 13 -2 13
-12 0 -22 59 -46 86 -36 13 5 10 0 -8 -14 -14 -12 -32 -22 -39 -22 -24 0 21
-37 60 -48 56 -17 110 -14 160 8 23 11 48 17 54 13 7 -4 8 0 4 11 -13 33 51
-26 69 -64 40 -83 45 -100 39 -109 -3 -6 -2 -11 3 -11 16 0 59 -191 47 -210
-3 -5 -1 -27 4 -47 6 -21 12 -73 15 -116 2 -43 7 -81 10 -85 9 -9 7 -40 -3
-44 -5 -1 -12 -34 -15 -71 -4 -38 -15 -85 -26 -106 -10 -21 -16 -41 -13 -45 4
-3 1 -6 -5 -6 -7 0 -12 -9 -12 -21 0 -14 -5 -19 -14 -16 -9 4 -16 -3 -20 -16
-5 -18 -8 -20 -16 -7 -9 13 -11 12 -9 -6 1 -13 -85 -63 -121 -70 -3 0 -18 -7
-35 -14 -47 -22 -212 -19 -264 5 -50 22 -63 44 -91 155 -12 46 -26 93 -32 105
-6 12 6 4 29 -18 55 -53 156 -77 170 -42 3 9 17 22 32 29 14 8 42 28 61 45
l35 32 -55 -6 c-30 -4 -67 -8 -82 -9 -15 -2 -25 1 -22 5 7 12 -1 11 -42 -6
-27 -11 -46 -12 -76 -6 -48 11 -53 16 -67 61 l-11 35 3 -37 c2 -21 0 -35 -3
-30 -31 37 -49 66 -44 73 3 5 1 8 -6 7 -14 -4 -24 15 -110 193 -42 88 -77 177
-87 220 -16 72 -24 281 -12 293 4 4 22 -9 42 -29 37 -37 71 -44 110 -24 22 12
37 28 37 40 0 4 -13 9 -28 12 -35 7 -38 32 -4 35 35 3 38 9 17 32 -22 24 -17
25 21 5 27 -14 29 -14 32 6 10 63 -80 179 -170 218 -24 10 -57 33 -74 50 l-31
30 -6 146 c-9 215 9 285 102 385 28 30 51 51 51 47 0 -5 12 0 28 11 53 37 85
38 114 3z m203 -326 c19 -76 19 -81 2 -66 -9 7 -15 17 -12 21 3 4 -6 37 -18
72 -18 49 -21 68 -13 81 9 15 13 9 23 -35 7 -29 15 -62 18 -73z m-416 -405
c26 -16 59 -42 75 -58 l28 -30 -22 -20 c-22 -20 -127 -39 -141 -25 -6 6 -13
121 -10 156 2 14 25 7 70 -23z m530 -12 l29 -33 -6 30 c-4 26 -3 28 10 18 8
-7 19 -9 24 -5 4 4 3 0 -4 -9 -12 -16 -7 -29 10 -29 5 0 6 6 2 13 -6 9 -5 9 7
0 8 -6 14 -26 14 -45 0 -18 6 -38 15 -45 13 -11 13 -12 -3 -13 -11 0 -15 -5
-11 -11 5 -9 -15 -10 -73 -7 -80 5 -116 19 -164 68 -15 15 -14 19 17 48 18 18
42 32 53 32 11 0 23 5 26 10 10 17 24 11 54 -22z m116 -247 c-14 -13 -83 -26
-70 -13 9 9 29 15 70 21 6 0 6 -2 0 -8z m522 -1295 c-2 -6 -7 -22 -11 -36 l-7
-25 14 23 13 23 41 -44 c22 -24 49 -57 59 -73 10 -16 24 -33 30 -39 19 -17 25
-45 9 -45 -8 0 -15 -5 -15 -11 0 -5 5 -7 11 -3 7 4 10 1 7 -7 -3 -8 -10 -13
-16 -12 -6 2 -9 -4 -6 -12 4 -9 1 -22 -6 -30 -8 -10 -9 -15 -2 -15 6 0 9 -7 6
-15 -4 -8 -15 -15 -25 -15 -10 0 -19 -2 -19 -4 0 -2 -3 -12 -7 -22 -5 -13 -3
-16 10 -11 14 5 15 3 5 -13 -10 -15 -9 -24 2 -46 14 -25 13 -28 -15 -50 -17
-13 -34 -24 -40 -24 -22 0 -94 -33 -89 -41 3 -5 -1 -7 -8 -4 -14 6 -59 -32
-84 -70 -12 -18 -13 -28 -5 -44 14 -26 14 -31 -4 -31 -8 0 -15 -5 -15 -12 0
-6 -3 -9 -6 -5 -8 8 -163 -89 -191 -119 -16 -17 -23 -38 -23 -65 0 -37 -2 -39
-31 -39 -59 0 -335 -132 -423 -202 -51 -40 -60 -42 -30 -4 16 20 32 36 35 36
3 0 16 14 28 31 13 18 19 29 12 25 -6 -4 1 13 16 38 28 46 43 56 23 14 -11
-22 -10 -22 4 -4 9 11 16 23 16 27 0 11 187 199 199 199 6 0 26 25 46 55 19
30 40 55 46 55 12 0 47 40 104 119 38 54 67 90 92 117 10 10 10 13 0 17 -6 2
-33 -17 -59 -43 -50 -51 -81 -65 -98 -45 -14 16 -10 76 6 95 15 19 24 59 39
165 4 28 13 53 19 58 6 4 25 -8 45 -30 19 -21 31 -31 27 -23 -4 8 2 4 13 -10
11 -14 21 -34 21 -46 0 -12 8 -31 19 -42 20 -24 37 -30 24 -10 -10 17 -4 71 9
79 6 4 7 16 3 28 -3 11 -2 21 3 21 5 0 13 24 16 53 7 53 34 103 43 80 3 -7 9
-13 15 -13 6 0 6 6 -2 15 -14 16 -6 35 16 35 8 0 14 9 14 19 0 25 20 38 31 20
7 -12 9 -12 9 0 0 7 6 11 15 7 18 -7 19 5 3 24 -11 12 -10 12 5 0 10 -7 16
-18 14 -24z m358 -521 c22 -78 35 -196 35 -315 0 -60 4 -111 9 -115 6 -3 8 51
6 137 -2 123 -15 218 -41 323 -5 21 -3 25 17 25 64 0 102 -22 181 -103 54 -56
81 -93 88 -119 6 -20 15 -40 20 -43 6 -3 7 2 4 12 -5 14 -4 15 4 4 6 -8 8 -20
5 -27 -3 -8 6 -30 18 -51 19 -30 23 -49 21 -91 -2 -33 1 -52 6 -48 6 3 8 -2 5
-14 -3 -11 -8 -18 -12 -16 -4 3 -13 -16 -20 -42 -18 -66 -32 -92 -50 -92 -14
0 -14 -2 -1 -10 13 -8 12 -10 -2 -10 -10 0 -18 -5 -18 -10 0 -6 5 -9 11 -8 6
2 13 -5 14 -14 3 -14 -4 -18 -28 -18 -30 -1 -30 -2 -12 -13 12 -7 20 -22 20
-39 -1 -28 -15 -53 -15 -27 -1 10 -4 9 -11 -4 -8 -14 -14 -16 -25 -6 -7 6 -11
15 -8 20 3 5 0 9 -5 9 -6 0 -10 -11 -9 -24 1 -14 6 -24 11 -23 5 1 11 -11 12
-26 2 -16 8 -34 13 -40 13 -18 9 -72 -6 -69 -15 3 -9 -43 9 -64 6 -8 9 -18 5
-22 -8 -7 -46 32 -65 65 -5 10 -12 15 -15 12 -3 -3 15 -34 40 -70 l47 -64 -48
45 -48 45 32 -44 c35 -50 38 -61 15 -61 -8 0 -13 -4 -10 -9 3 -5 14 -7 24 -5
11 3 21 -4 29 -22 7 -15 11 -30 8 -32 -3 -3 -5 0 -5 6 0 7 -4 12 -9 12 -6 0
-8 -15 -6 -32 3 -36 32 -98 45 -98 4 0 6 -15 4 -32 -2 -18 -4 -48 -5 -66 -2
-34 -13 -49 -24 -32 -3 5 -11 10 -17 10 -6 0 -4 -8 5 -18 23 -25 21 -32 -5
-32 -17 0 -19 -3 -10 -12 16 -16 15 -47 -3 -81 -10 -19 -10 -26 -2 -22 7 4 5
1 -4 -7 -9 -7 -21 -29 -28 -49 -6 -21 -21 -47 -31 -59 -14 -16 -18 -32 -15
-53 7 -35 -6 -50 -85 -98 -50 -30 -54 -31 -126 -25 -174 16 -334 81 -467 188
-129 105 -204 225 -232 372 -19 97 -19 167 0 281 7 50 14 133 14 185 -1 99 12
152 51 216 13 20 17 35 10 39 -5 3 -10 1 -10 -4 0 -6 -5 -11 -10 -11 -6 0 -1
13 11 30 12 16 23 40 24 52 1 13 7 22 13 21 6 -2 9 4 5 12 -5 14 -8 14 -29 0
-23 -15 -24 -14 -24 5 0 14 15 27 51 46 28 14 48 20 43 13 -4 -8 1 -7 14 2 28
20 79 85 88 112 10 32 81 122 117 150 18 13 59 37 92 55 54 28 68 34 100 42 6
2 37 13 70 26 33 13 73 22 88 21 24 -1 29 -7 42 -52z m1513 -197 c-1 -18 4
-34 10 -36 7 -2 12 -11 13 -20 0 -11 3 -12 6 -5 3 9 10 10 24 3 14 -8 19 -22
19 -51 0 -22 4 -38 8 -35 4 2 9 -7 10 -22 1 -15 7 -28 12 -30 6 -2 10 -8 10
-13 0 -6 -3 -8 -8 -5 -4 2 -6 -14 -4 -37 l3 -42 -26 45 c-14 25 -23 34 -19 20
6 -22 5 -23 -9 -12 -8 7 -19 32 -23 55 -8 42 -8 42 -15 12 l-7 -30 -2 35 c-4
51 -5 54 -13 68 -5 6 -4 12 1 12 10 0 2 45 -14 84 -5 14 -4 17 4 12 18 -11 14
5 -5 27 -17 19 -17 20 4 8 16 -8 21 -20 21 -43z m77 -298 c-7 -21 13 -25 27
-5 4 6 8 2 8 -8 0 -10 -7 -20 -15 -23 -8 -4 -15 -10 -15 -15 0 -4 7 -6 15 -3
18 7 20 -11 3 -22 -6 -4 -17 1 -25 11 -16 22 -18 85 -2 85 6 0 8 -9 4 -20z
m75 -30 c0 7 2 11 5 8 3 -3 0 -18 -6 -34 -10 -27 -12 -27 -19 -9 -5 11 -9 29
-9 40 0 20 0 20 14 1 10 -13 15 -15 15 -6z m95 -372 c5 4 5 1 1 -6 -6 -11 -11
-11 -24 0 -14 11 -15 10 -8 -7 4 -11 10 -32 13 -47 3 -15 9 -26 13 -23 4 3 13
-2 20 -10 8 -10 9 -19 1 -32 -9 -13 -11 -14 -10 -3 3 28 -1 41 -10 36 -15 -10
-42 6 -37 21 3 7 0 22 -6 33 -15 23 7 57 27 40 6 -5 16 -6 20 -2z m-3920 -88
c3 -5 12 -10 18 -10 7 0 6 4 -3 10 -13 8 -13 10 1 10 9 0 19 -7 23 -15 3 -8 2
-14 -2 -13 -4 1 -15 -2 -26 -7 -12 -5 -21 -3 -27 6 -7 12 -9 12 -9 0 0 -8 -3
-12 -6 -8 -9 8 3 37 15 37 5 0 13 -4 16 -10z m1619 -2195 c3 -8 2 -14 -2 -14
-4 1 -16 1 -27 0 -17 -1 -18 -3 -5 -12 12 -8 10 -9 -9 -4 -14 5 -21 3 -17 -3
3 -5 -8 -16 -24 -24 l-30 -14 20 -22 c24 -26 26 -40 3 -21 -14 12 -43 68 -43
84 0 3 10 5 23 5 16 0 71 21 103 39 1 1 4 -6 8 -14z"/>
        <path d="M4176 4935 c-3 -8 -3 -21 0 -28 13 -35 -61 -50 -295 -59 -31 -1 -32
-2 -15 -16 11 -8 34 -20 52 -28 17 -8 32 -20 32 -28 0 -14 21 -26 47 -26 8 0
28 11 45 25 17 14 42 25 59 25 45 0 98 26 109 54 11 31 1 96 -15 96 -7 0 -15
-7 -19 -15z"/>
        <path d="M3881 4676 c-1 -19 38 -72 52 -71 5 0 13 -8 18 -18 6 -9 15 -15 20
-11 5 3 16 0 25 -6 8 -7 46 -13 87 -14 39 0 75 -5 79 -11 5 -6 8 -6 8 1 0 15
92 15 102 1 6 -10 117 32 118 44 0 4 -9 18 -20 32 l-20 26 -47 -21 c-46 -20
-50 -20 -156 -5 -64 9 -119 12 -132 7 -15 -6 -28 -3 -44 9 -13 10 -33 16 -45
14 -16 -3 -25 2 -33 19 -10 19 -12 20 -12 4z"/>
        <path d="M5281 2930 c1 -55 1 -55 9 -15 4 22 4 47 -1 55 -5 10 -8 -5 -8 -40z"/>
        <path d="M6339 4705 c-1 -11 -1 -26 0 -34 2 -8 -2 -10 -11 -5 -9 5 -9 2 2 -10
13 -17 15 -17 22 10 4 15 3 34 -2 43 -8 14 -10 13 -11 -4z"/>
        <path d="M3922 467 c-7 -23 -15 -48 -18 -55 -4 -7 0 -10 9 -6 23 8 46 -23 45
-61 -1 -19 1 -37 4 -40 5 -5 58 68 58 79 0 12 50 53 57 48 4 -4 4 -2 -2 4 -5
5 -37 21 -70 34 -33 13 -62 27 -65 32 -3 4 -12 -11 -18 -35z"/>
        <path d="M4275 481 c11 -4 38 -11 60 -14 25 -4 33 -4 20 2 -11 4 -38 11 -60
14 -25 4 -33 4 -20 -2z"/>
        <path d="M4122 389 c-7 -11 -10 -25 -6 -31 4 -6 3 -8 -3 -5 -12 8 -74 -114
-96 -189 -14 -46 -14 -54 -1 -73 9 -12 23 -21 32 -21 16 0 20 10 24 57 1 7 5
10 10 7 5 -3 6 -10 3 -15 -4 -5 6 -9 22 -9 23 0 25 -2 13 -11 -11 -8 -8 -9 13
-4 18 3 26 2 23 -4 -4 -5 -3 -29 0 -52 l7 -42 81 7 c45 4 86 7 91 8 6 0 18 -3
28 -7 15 -6 17 0 17 58 0 62 -1 64 -24 60 -13 -3 -34 0 -45 7 -29 15 -61 69
-61 102 0 14 -3 28 -7 31 -5 2 -2 2 6 0 8 -2 11 2 7 12 -3 9 -2 14 3 11 4 -3
19 6 31 19 13 14 34 25 46 25 28 0 74 -20 74 -32 0 -19 27 -6 43 22 10 17 17
30 15 31 -16 3 -132 12 -165 13 -22 1 -39 4 -36 9 2 4 -4 8 -14 9 -20 1 -35 4
-43 8 -20 10 -58 5 -75 -9 -19 -15 -19 -15 -6 2 8 9 12 19 10 22 -3 2 -10 -5
-17 -16z m-66 -165 c-4 -9 -1 -24 6 -32 11 -13 10 -15 -4 -10 -12 5 -17 -1
-22 -27 -4 -19 -11 -37 -16 -40 -5 -3 -8 0 -6 7 3 7 12 37 21 66 9 28 19 52
22 52 3 0 2 -7 -1 -16z"/>
        <path d="M4731 58 c-10 -17 -10 -22 0 -29 8 -5 17 1 26 18 7 14 11 28 8 31 -3
3 -5 -1 -5 -9 0 -10 -2 -11 -8 -2 -5 9 -11 6 -21 -9z"/>
        <path d="M4475 33 c9 -36 7 -35 45 -31 l33 3 -43 28 -42 27 7 -27z"/>
    </g>
</svg>
